# xmcd
#
# Track frame offsets:
#	150
#	14665
#	32287
#	47250
#	60525
#	81037
#	95062
#	112950
#	131815
#	153600
#	168377
#
# Disc length: 2423 seconds
#
# Revision: 0
# Processed by: cddbd v1.4PL0 Copyright (c) Steve Scherf et al.
# Submitted via: dBpowerAMP V4.0
#
DISCID=8409750b
DTITLE=Pegtop - Just Us
DYEAR=1995
DGENRE=Ballad
TTITLE0=Road
TTITLE1=Range fire
TTITLE2=Bridges over Birmingham
TTITLE3=Keep the Faith
TTITLE4=Listen Children
TTITLE5=Dove
TTITLE6=Steve-O
TTITLE7=The Student
TTITLE8=Vicious Circles
TTITLE9=Wall of Fire
TTITLE10=I Believe In You
EXTD=
EXTT0=
EXTT1=
EXTT2=
EXTT3=
EXTT4=
EXTT5=
EXTT6=
EXTT7=
EXTT8=
EXTT9=
EXTT10=
PLAYORDER=
